<svg width="43" height="43" viewBox="0 0 43 43" fill="none" xmlns="http://www.w3.org/2000/svg">
<path d="M9.56246 25.125H33.7708C34.7258 25.125 35.5 25.8992 35.5 26.8541C35.5 27.7295 34.8493 28.453 34.0055 28.5676L33.7708 28.5833H9.56246C8.60748 28.5833 7.83329 27.8091 7.83329 26.8541C7.83329 25.9787 8.48381 25.2552 9.32782 25.1406L9.56246 25.125ZM33.7708 32.0416H9.56246L9.32782 32.0573C8.48381 32.1719 7.83329 32.8954 7.83329 33.7708C7.83329 34.7258 8.60748 35.5 9.56246 35.5H33.7708L34.0055 35.4843C34.8493 35.3697 35.5 34.6462 35.5 33.7708C35.5 32.8158 34.7258 32.0416 33.7708 32.0416ZM42.4166 7.2569C42.4166 3.75527 39.578 0.916626 36.0763 0.916626H7.2569C3.75527 0.916626 0.916626 3.75527 0.916626 7.2569V36.0763C0.916626 39.578 3.75527 42.4166 7.2569 42.4166H36.0763C39.578 42.4166 42.4166 39.578 42.4166 36.0763V7.2569ZM7.2569 4.37496H36.0763C37.6681 4.37496 38.9583 5.66524 38.9583 7.2569V36.0763C38.9583 37.6681 37.6681 38.9583 36.0763 38.9583H7.2569C5.66524 38.9583 4.37496 37.6681 4.37496 36.0763V7.2569C4.37496 5.66524 5.66524 4.37496 7.2569 4.37496Z" fill="#607485"/>
</svg>
